<svg width="40" height="36" viewBox="0 0 40 36" fill="none" xmlns="http://www.w3.org/2000/svg">
<path fill-rule="evenodd" clip-rule="evenodd" d="M30.88 6.47293C30.96 6.61277 31.1 6.71266 31.28 6.71266C36.08 6.71266 40 10.6283 40 15.423V27.2898C40 32.0845 36.08 36.0001 31.28 36.0001H8.72C3.9 36.0001 0 32.0845 0 27.2898V15.423C0 10.6283 3.9 6.71266 8.72 6.71266C8.88 6.71266 9.04 6.63275 9.1 6.47293L9.22 6.2332C9.28896 6.08806 9.35973 5.93898 9.43158 5.78765C9.94322 4.70997 10.5093 3.51771 10.86 2.81699C11.78 1.01899 13.34 0.0200999 15.28 0.00012207H24.7C26.64 0.0200999 28.22 1.01899 29.14 2.81699C29.455 3.44627 29.9349 4.45991 30.3974 5.4369C30.4929 5.63853 30.5876 5.83861 30.68 6.03342L30.88 6.47293ZM29.42 14.1443C29.42 15.1432 30.22 15.9423 31.22 15.9423C32.22 15.9423 33.04 15.1432 33.04 14.1443C33.04 13.1454 32.22 12.3263 31.22 12.3263C30.22 12.3263 29.42 13.1454 29.42 14.1443ZM16.54 17.2408C17.48 16.3018 18.7 15.8024 20 15.8024C21.3 15.8024 22.52 16.3018 23.44 17.2208C24.36 18.1398 24.86 19.3584 24.86 20.657C24.84 23.334 22.68 25.5116 20 25.5116C18.7 25.5116 17.48 25.0121 16.56 24.0932C15.64 23.1742 15.14 21.9555 15.14 20.657V20.637C15.12 19.3784 15.62 18.1598 16.54 17.2408ZM25.54 26.211C24.12 27.6294 22.16 28.5085 20 28.5085C17.9 28.5085 15.94 27.6894 14.44 26.211C12.96 24.7127 12.14 22.7549 12.14 20.6572C12.12 18.5795 12.94 16.6217 14.42 15.1233C15.92 13.625 17.9 12.8059 20 12.8059C22.1 12.8059 24.08 13.625 25.56 15.1034C27.04 16.6017 27.86 18.5795 27.86 20.6572C27.84 22.8348 26.96 24.7926 25.54 26.211Z" fill="#374151"/>
</svg>
